<svg width="24" height="20" viewBox="0 0 24 20" fill="none" xmlns="http://www.w3.org/2000/svg">
  <g id="change camera">
    <path id="Vector" d="M1 2V8H7" stroke="#888888" stroke-width="2" stroke-linecap="round" stroke-linejoin="round" />
    <path id="Vector_2" d="M23 18V12H17" stroke="#888888" stroke-width="2" stroke-linecap="round"
      stroke-linejoin="round" />
    <path id="Vector_3"
      d="M20.49 7.00001C19.9828 5.5668 19.1209 4.28542 17.9845 3.27543C16.8482 2.26545 15.4745 1.55978 13.9917 1.22427C12.5089 0.888766 10.9652 0.934356 9.50481 1.35679C8.04437 1.77922 6.71475 2.56473 5.64 3.64001L1 8.00001M23 12L18.36 16.36C17.2853 17.4353 15.9556 18.2208 14.4952 18.6432C13.0348 19.0657 11.4911 19.1113 10.0083 18.7758C8.52547 18.4402 7.1518 17.7346 6.01547 16.7246C4.87913 15.7146 4.01717 14.4332 3.51 13"
      stroke="#888888" stroke-width="2" stroke-linecap="round" stroke-linejoin="round" />
  </g>
</svg>